<?xml version="1.0" encoding="UTF-8"?>
<svg width="210mm" height="297mm" version="1.1" viewBox="0 0 210 297" xmlns="http://www.w3.org/2000/svg" xmlns:cc="http://creativecommons.org/ns#" xmlns:dc="http://purl.org/dc/elements/1.1/" xmlns:rdf="http://www.w3.org/1999/02/22-rdf-syntax-ns#">
 <metadata>
  <rdf:RDF>
   <cc:Work rdf:about="">
    <dc:format>image/svg+xml</dc:format>
    <dc:type rdf:resource="http://purl.org/dc/dcmitype/StillImage"/>
    <dc:title/>
   </cc:Work>
  </rdf:RDF>
 </metadata>
 <g fill="#333697" stroke-width=".26458">
  <path d="m64.531 70c-1.2128 0.0056-2.3709 0.10907-3.39 0.28939-3.002 0.53036-3.5471 1.6404-3.5471 3.6876v2.7037h7.0941v0.90124h-9.7565c-2.0618 0-3.8671 1.2392-4.4318 3.5967-0.65136 2.7022-0.68025 4.3884 0 7.2099 0.50428 2.1002 1.7086 3.5967 3.7703 3.5967h2.4391v-3.2411c0-2.3415 2.026-4.407 4.4318-4.407h7.0859c1.9725 0 3.5471-1.6241 3.5471-3.6049v-6.7551c0-1.9226-1.6219-3.3668-3.5471-3.6876-1.2187-0.20286-2.4831-0.29502-3.6959-0.28939zm-3.8365 2.1745c0.73278 0 1.3312 0.60818 1.3312 1.356-1e-6 0.74516-0.59841 1.3477-1.3312 1.3477-0.7354 0-1.3312-0.60257-1.3312-1.3477 0-0.74781 0.59578-1.356 1.3312-1.356z"/>
  <path d="m72.658 77.582v3.1502c0 2.4423-2.0706 4.4979-4.4318 4.4979h-7.0859c-1.9409 0-3.5471 1.6612-3.5471 3.6049v6.7551c0 1.9226 1.6718 3.0534 3.5471 3.6049 2.2456 0.6603 4.399 0.77963 7.0859 0 1.786-0.5171 3.5471-1.5578 3.5471-3.6049v-2.7037h-7.0859v-0.90124h10.633c2.0618 0 2.83-1.4381 3.5471-3.5967 0.74066-2.2222 0.70914-4.3592 0-7.2099-0.50953-2.0525-1.4827-3.5967-3.5471-3.5967zm-3.9853 17.107c0.7354 1e-6 1.3312 0.60257 1.3312 1.3477-1e-6 0.74781-0.59578 1.356-1.3312 1.356-0.73278 0-1.3312-0.60818-1.3312-1.356 1e-6 -0.74515 0.59841-1.3477 1.3312-1.3477z"/>
  <text x="82.863098" y="91.287926" font-family="Futura" font-size="28.222px" style="line-height:1.25" xml:space="preserve"><tspan x="82.863098" y="91.287926" fill="#333697" font-family="'Helvetica Neue'" font-size="28.222px" stroke-width=".26458">pyrfu</tspan></text>
 </g>
</svg>
